<?xml version="1.0" encoding="UTF-8"?>
<svg id="Layer_1" data-name="Layer 1" xmlns="http://www.w3.org/2000/svg" viewBox="0 0 1080 289.78">
  <defs>
    <style>
      .cls-1 {
        fill: #231f20;
      }
    </style>
  </defs>
  <g>
    <path class="cls-1" d="M226.89,145.51c0,12.48-2.06,24.31-6.15,35.49-15.22-5.13-51.76,3.76-64.87,4.59-2.03.13-4.08.24-6.14.33-4.19-36.1-14.97-70.78-26.27-105.16l-18.72,105.66c-8.36.04-16.73.17-25,.57-9.94.48-20.01-.07-30.02-.18V41.46h73.11c18.81,0,36.2,4.66,52.18,13.95,15.98,9.31,28.62,21.95,37.92,37.92,9.3,15.98,13.95,33.37,13.95,52.18Z"/>
    <path class="cls-1" d="M203.01,191.39c2.28.02,7.5.99,12.41,1.63-.79,1.52-1.61,3.03-2.49,4.52-1.81,3.09-3.75,6.05-5.81,8.89-8.07-.29-16.48-.12-19.31.04-37.17,2.17-74.04,2.08-111.12,4.21-8.89.51-18.01.29-26.97-.41v-10.56c15.97-.53,47.29-5.64,55.77-5.87,19.6-.53,38.72,4.4,59.43,2.82,12.03-.92,25.53-5.36,38.09-5.28Z"/>
    <path class="cls-1" d="M189.32,219.01c2.4-.15,4.83-.21,7.25-.23-4.13,4.13-8.62,7.89-13.46,11.31-15.87.36-33.84,4.92-50.08,5.69-27.25,1.28-52.58-2.73-80.58.11-.83.08-1.76.16-2.74.26v-9.89c4.69.13,9.65-.19,11.67-.31,11.86-.76,26.1-4.19,38.09-4.29,13.64-.11,30.36,3.29,44.22,2.97,14.32-.33,31.09-4.74,45.63-5.62Z"/>
    <path class="cls-1" d="M49.72,239.35l114.8,1.3c-13.03,5.74-26.92,8.62-41.69,8.62H49.72v-9.92Z"/>
  </g>
  <g>
    <path class="cls-1" d="M437.22,251.51h-83.72l-34.65-39.56v39.56h-62.25V41.46h78.5c14.11,0,27.14,3.48,39.1,10.43,11.96,6.95,21.41,16.41,28.37,28.37,6.95,11.96,10.43,24.99,10.43,39.1,0,12.88-3.27,24.89-9.81,36.03-6.54,11.15-15.33,20.19-26.37,27.14l60.41,69ZM318.85,100.64v46h11.65c6.33,0,11.75-2.25,16.25-6.75,4.49-4.5,6.75-9.91,6.75-16.25s-2.25-11.75-6.75-16.25c-4.5-4.49-9.92-6.75-16.25-6.75h-11.65Z"/>
    <path class="cls-1" d="M442.74,41.46h62.25v210.06h-62.25V41.46Z"/>
    <path class="cls-1" d="M604.04,251.51h-62.25V41.46h132.48v62.56h-70.22v25.45h70.22v32.81h-70.22v89.24Z"/>
    <path class="cls-1" d="M790.18,251.51h-62.25V104.01h-35.27v-62.56h132.48v62.56h-34.96v147.5Z"/>
    <path class="cls-1" d="M1030.28,251.51h-83.72l-34.65-39.56v39.56h-62.25V41.46h78.5c14.11,0,27.14,3.48,39.1,10.43,11.96,6.95,21.41,16.41,28.37,28.37,6.95,11.96,10.43,24.99,10.43,39.1,0,12.88-3.27,24.89-9.81,36.03-6.55,11.15-15.33,20.19-26.37,27.14l60.41,69ZM911.91,100.64v46h11.65c6.33,0,11.75-2.25,16.25-6.75s6.75-9.91,6.75-16.25-2.25-11.75-6.75-16.25c-4.5-4.49-9.92-6.75-16.25-6.75h-11.65Z"/>
  </g>
</svg>